{"title":"Night Creatures(1962)MPEG-4[DaScubaDude]","uid":14158720,"size":825210412,"categoryP":"video","categoryS":"movies","magnet":"?xt=urn:btih:433faec643a993f78deb3910bb9dd7d7c76e8729&amp;dn=Night+Creatures%281962%29MPEG-4%5BDaScubaDude%5D&amp;tr=udp%3A%2F%2Ftracker.leechers-paradise.org%3A6969&amp;tr=udp%3A%2F%2Fzer0day.ch%3A1337&amp;tr=udp%3A%2F%2Fopen.demonii.com%3A1337&amp;tr=udp%3A%2F%2Ftracker.coppersurfer.tk%3A6969&amp;tr=udp%3A%2F%2Fexodus.desync.com%3A6969","seeders":1,"leechers":0,"uploader":"dascuba","files":1,"time":1459692772,"description":"Night Creatures (1962)\r\nCaptain Clegg (original title)\r\nUnrated | 1h 22min | Adventure, Horror | 13 June 1962 (USA)\r\nIn 18th-century England, the Royal Crown sends Royal Navy Captain Collier and his crew to investigate reports of illegal smuggling and bootlegging in a coastal town where locals believe in Marsh Phantoms.\r\nDirector: Peter Graham Scott\r\nWriters: Anthony Hinds (screenplay) (as John Elder), Barbara S. Harper (additional dialogue)\r\nStars: Peter Cushing, Yvonne Romain, Patrick Allen \r\n\r\nGeneral\r\nComplete name                            : Night CreaturesHAMMER_HORROR_Title1.mp4\r\nFormat                                   : MPEG-4\r\nFormat profile                           : Base Media\r\nCodec ID                                 : isom\r\nFile size                                : 787 MiB\r\nDuration                                 : 1h 22mn\r\nOverall bit rate                         : 1 339 Kbps\r\nMovie name                               : HAMMER_HORROR\r\nGenre                                    : Horror\r\nWriting application                      : Lavf54.6.100\r\n\r\nVideo\r\nID                                       : 1\r\nFormat                                   : AVC\r\nFormat/Info                              : Advanced Video Codec\r\nFormat profile                           :   \r\nFormat settings, CABAC                   : No\r\nFormat settings, ReFrames                : 6 frames\r\nFormat settings, GOP                     : M=1, N=60\r\nCodec ID                                 : avc1\r\nCodec ID/Info                            : Advanced Video Coding\r\nDuration                                 : 1h 22mn\r\nBit rate                                 : 1 203 Kbps\r\nWidth                                    : 720 pixels\r\nHeight                                   : 404 pixels\r\nDisplay aspect ratio                     : 16:9\r\nFrame rate mode                          : Constant\r\nFrame rate                               : 29.970 fps\r\nColor space                              : YUV\r\nChroma subsampling                       : 4:2:0\r\nBit depth                                : 8 bits\r\nScan type                                : Progressive\r\nBits/(Pixel*Frame)                       : 0.138\r\nStream size                              : 707 MiB (90%)\r\n\r\nAudio\r\nID                                       : 2\r\nFormat                                   : AAC\r\nFormat/Info                              : Advanced Audio Codec\r\nFormat profile                           : LC\r\nCodec ID                                 : 40\r\nDuration                                 : 1h 22mn\r\nBit rate mode                            : Constant\r\nBit rate                                 : 129 Kbps\r\nChannel(s)                               : 2 channels\r\nChannel positions                        : Front: L R\r\nSampling rate                            : 44.1 KHz\r\nCompression mode                         : Lossy\r\nStream size                              : 76.0 MiB (10%)","torrent":{"xt":"urn:btih:433faec643a993f78deb3910bb9dd7d7c76e8729","amp;dn":"Night+Creatures%281962%29MPEG-4%5BDaScubaDude%5D","amp;tr":["udp%3A%2F%2Ftracker.leechers-paradise.org%3A6969","udp%3A%2F%2Fzer0day.ch%3A1337","udp%3A%2F%2Fopen.demonii.com%3A1337","udp%3A%2F%2Ftracker.coppersurfer.tk%3A6969","udp%3A%2F%2Fexodus.desync.com%3A6969"],"infoHash":"433faec643a993f78deb3910bb9dd7d7c76e8729","infoHashBuffer":{"type":"Buffer","data":[67,63,174,198,67,169,147,247,141,235,57,16,187,157,215,215,199,110,135,41]},"announce":[],"urlList":[]}}